<?xml version="1.0" standalone="no"?>
<!DOCTYPE svg PUBLIC "-//W3C//DTD SVG 20010904//EN"
 "http://www.w3.org/TR/2001/REC-SVG-20010904/DTD/svg10.dtd">
<svg version="1.0" xmlns="http://www.w3.org/2000/svg"
 width="322.000000pt" height="307.000000pt" viewBox="0 0 322.000000 307.000000"
 preserveAspectRatio="xMidYMid meet">
<g transform="translate(0.000000,307.000000) scale(0.100000,-0.100000)"
fill="#000000" stroke="none">
<path d="M1357 2241 c-257 -445 -467 -812 -467 -815 0 -3 421 -6 935 -6 626 0
935 3 935 10 0 10 -896 1567 -922 1603 -12 16 -69 -78 -481 -792z"/>
<path d="M780 2029 c-184 -319 -336 -586 -338 -594 -3 -13 20 -15 151 -15
l154 0 261 454 c144 249 262 458 262 464 0 10 -134 248 -149 264 -3 4 -157
-254 -341 -573z"/>
<path d="M2679 689 c-49 -19 -65 -96 -28 -143 17 -22 28 -26 69 -26 69 0 95
24 94 85 -1 31 -7 52 -20 65 -23 23 -80 32 -115 19z"/>
<path d="M134 605 c-88 -44 -129 -133 -104 -226 16 -58 64 -100 162 -140 85
-36 108 -53 91 -70 -19 -19 -83 -12 -136 16 l-52 27 -47 -54 c-26 -29 -48 -58
-48 -64 0 -15 28 -38 80 -65 55 -28 196 -38 255 -19 81 27 135 102 135 187 0
93 -41 141 -167 193 -96 40 -107 48 -92 66 17 20 66 17 117 -7 l44 -22 34 39
c36 41 50 76 39 94 -18 29 -112 63 -185 67 -66 4 -81 1 -126 -22z"/>
<path d="M2945 588 c-2 -7 -6 -34 -10 -60 -6 -47 -7 -48 -41 -48 l-34 0 0 -70
0 -70 29 0 29 0 4 -117 c6 -184 38 -223 183 -223 109 0 111 2 94 84 l-13 66
-32 -6 c-48 -9 -64 21 -64 118 l0 78 55 0 56 0 -3 68 -3 67 -52 3 -53 3 0 60
0 59 -70 0 c-48 0 -72 -4 -75 -12z"/>
<path d="M1305 488 c-21 -5 -49 -17 -60 -28 -27 -25 -35 -25 -35 0 0 18 -7 20
-75 20 l-75 0 0 -235 0 -235 85 0 84 0 3 146 3 147 28 21 29 21 19 -24 c17
-20 19 -40 19 -167 l0 -144 85 0 85 0 0 150 0 149 28 15 c19 10 33 11 45 5 15
-9 17 -29 17 -164 l0 -155 85 0 85 0 0 188 c0 163 -2 192 -19 222 -29 54 -61
73 -126 73 -47 0 -63 -5 -99 -31 -34 -25 -45 -29 -49 -17 -14 34 -99 57 -162
43z"/>
<path d="M2093 491 c-17 -5 -44 -18 -59 -30 l-28 -22 -8 20 c-6 19 -16 21 -78
21 l-70 0 0 -235 0 -235 85 0 85 0 0 150 0 149 31 16 c54 28 59 14 59 -161 l0
-154 90 0 90 0 0 149 c0 144 1 151 22 165 28 20 33 20 52 0 13 -13 16 -42 16
-165 l0 -149 86 0 86 0 -4 192 c-3 210 -10 237 -63 272 -52 34 -166 18 -204
-28 -12 -14 -17 -13 -48 14 -18 17 -41 30 -51 30 -9 0 -26 2 -37 4 -11 3 -34
1 -52 -3z"/>
<path d="M532 298 c5 -200 13 -237 63 -276 41 -32 139 -31 188 2 35 24 36 24
42 5 6 -16 16 -19 76 -19 l69 0 0 235 0 235 -85 0 -85 0 0 -150 0 -150 -26
-17 c-19 -12 -30 -14 -43 -6 -13 9 -16 34 -19 167 l-3 156 -90 0 -91 0 4 -182z"/>
<path d="M2640 245 l0 -235 85 0 85 0 0 235 0 235 -85 0 -85 0 0 -235z"/>
</g>
</svg>
